<svg width="400" height="400" viewBox="0 0 400 400" fill="none" xmlns="http://www.w3.org/2000/svg">
<rect width="400" height="400" fill="white"/>
<path d="M201.86 101.913L112.367 96L106.454 185.493L195.947 191.406L201.86 101.913Z" fill="#FF4852"/>
<path d="M193.668 223.006L212.259 135.265L300 153.856L193.668 223.006Z" fill="#FF4852"/>
<path d="M236.088 302.736C260.852 302.736 280.928 282.66 280.928 257.896C280.928 233.132 260.852 213.056 236.088 213.056C211.324 213.056 191.248 233.132 191.248 257.896C191.248 282.66 211.324 302.736 236.088 302.736Z" fill="#FF4852"/>
<path d="M195.968 191.382C146.571 187.781 103.601 224.91 100 274.307L189.447 280.829L195.968 191.382Z" fill="#FF4852"/>
</svg>
